<svg xmlns="http://www.w3.org/2000/svg" viewBox="0 0 1024 256" role="img" aria-label="Autoviseo logo">
  <defs>
    <linearGradient id="logoGradient" x1="0" y1="0" x2="1" y2="1">
      <stop offset="0%" stop-color="#7b5cff"/>
      <stop offset="100%" stop-color="#38e0ff"/>
    </linearGradient>
  </defs>
  <rect width="1024" height="256" fill="none"/>
  <g transform="translate(32,24)" fill="url(#logoGradient)" stroke="#e7efff" stroke-opacity="0.9" stroke-width="4">
    <rect x="0" y="24" width="56" height="56" rx="12"/>
    <rect x="72" y="24" width="56" height="56" rx="12"/>
    <rect x="0" y="96" width="56" height="56" rx="12"/>
    <rect x="72" y="96" width="56" height="56" rx="12"/>
    <rect x="144" y="96" width="56" height="56" rx="12"/>
    <rect x="0" y="168" width="56" height="56" rx="12"/>
    <rect x="72" y="168" width="56" height="56" rx="12"/>
    <rect x="144" y="168" width="56" height="56" rx="12"/>
    <rect x="180" y="-4" width="56" height="56" rx="12"/>
  </g>
  <circle cx="230" cy="108" r="4" fill="#38e0ff"/>
  <text x="320" y="120" font-size="72" font-weight="700" font-family="Manrope, Arial, sans-serif" fill="url(#logoGradient)" letter-spacing="6">
    AUTOVISEO
  </text>
  <text x="324" y="176" font-size="24" font-weight="500" font-family="Manrope, Arial, sans-serif" fill="#c6c8dc">
    Dijital Otomasyon
  </text>
</svg>
